<svg width="51" height="48" viewBox="0 0 51 48" fill="none" xmlns="http://www.w3.org/2000/svg">
<g clip-path="url(#clip0_2249_40806)">
<circle cx="25" cy="24" r="19" fill="white"/>
<path d="M2.76011 30.87C2.7866 30.1083 2.58462 29.356 2.18012 28.71C2.06329 28.5573 1.91147 28.4348 1.73744 28.3531C1.56341 28.2713 1.37227 28.2325 1.18012 28.24C-0.559877 28.24 0.0101197 31.01 0.27012 31.95C0.368907 32.3672 0.587965 32.7462 0.900125 33.04C1.23485 33.3034 1.63021 33.4787 2.05012 33.55C2.1613 33.586 2.27988 33.5927 2.39442 33.5696C2.50896 33.5464 2.6156 33.4941 2.70405 33.4177C2.79249 33.3413 2.85976 33.2434 2.89936 33.1335C2.93896 33.0235 2.94955 32.9052 2.93012 32.79C2.8123 32.1564 2.74541 31.5143 2.73011 30.87" fill="#D01323"/>
<path d="M50.3601 19.14C50.3601 19.14 48.67 5.19999 36.72 1.42999C30.04 -0.670009 26.72 -0.0400088 22.63 0.679991C17.83 1.51999 12.0701 3.55999 7.93007 7.08999C4.61628 9.83727 2.24831 13.5553 1.16005 17.72C0.569551 20.1748 0.498034 22.7259 0.950055 25.21C1.12006 26.16 2.45004 27.03 2.47004 25.49C2.62004 8.35999 16.72 5.16999 17.22 5.06999L17.7401 4.95999C17.9598 4.89131 18.1917 4.87084 18.4201 4.89999C18.4554 4.91228 18.486 4.93525 18.5076 4.96571C18.5293 4.99617 18.5409 5.03262 18.5409 5.06999C18.5409 5.10737 18.5293 5.14381 18.5076 5.17428C18.486 5.20474 18.4554 5.22771 18.4201 5.23999C17.2901 5.77999 12.9001 7.23999 10.5101 9.35999C7.00828 12.2645 4.66902 16.3325 3.92006 20.82C3.65152 24.1207 3.70511 27.4397 4.08006 30.73C4.50709 32.9733 5.42577 35.0941 6.77006 36.94C9.32074 40.0065 12.5772 42.4085 16.2601 43.94C17.7007 44.3661 19.167 44.7002 20.6501 44.94C20.7217 44.94 20.7904 44.9684 20.841 45.0191C20.8916 45.0697 20.9201 45.1384 20.9201 45.21C20.9201 45.2816 20.8916 45.3503 20.841 45.4009C20.7904 45.4515 20.7217 45.48 20.6501 45.48C19.1101 45.73 15.37 44.87 12.28 43.36C10.19 42.2599 8.33255 40.7657 6.81007 38.96C5.09007 37.1 4.17004 35.17 3.53004 35.29C2.48004 35.51 3.37006 37.75 3.83006 38.61C5.38055 41.239 7.56332 43.4389 10.1801 45.01C13.9286 47.0037 18.1665 47.8915 22.4001 47.57C32.1201 46.75 38.1 42.09 40.75 38.43C42.3 36.29 45.75 31.77 45.69 25.17C45.69 24.12 45.7701 16.82 43.3701 13.01C42.8301 12.14 41.2001 8.57999 35.0201 5.54999C33.6731 4.809 32.1963 4.33371 30.6701 4.14999C29.9401 4.14999 28.4701 4.06999 28.6101 3.20999C28.7101 2.59999 32.3101 3.39999 32.6801 3.50999C35.6543 4.51716 38.4344 6.02557 40.9001 7.96999C48.0401 13.42 47.32 24.97 47.32 24.97C47.02 37.26 39.8301 42.46 34.6701 45.53C34.5701 45.59 34.2 46.06 34.32 46.25C34.44 46.44 34.6901 46.41 34.9301 46.39C36.9301 46.19 38.85 44.72 40.5 43.39C49.02 36.71 49.5001 31.5 49.9301 29.53C50.5548 26.0896 50.6894 22.5781 50.3301 19.1L50.3601 19.14ZM14.4901 27.33C13.8701 27.43 13.4901 27.33 13.4201 27.14C13.4069 27.0988 13.4099 27.0542 13.4285 27.0152C13.4471 26.9762 13.4798 26.9457 13.5201 26.93C13.6663 26.8507 13.8205 26.787 13.9801 26.74C14.2366 26.6612 14.4872 26.5643 14.7301 26.45C15.7301 25.94 16.7301 25.07 16.6101 24.11C16.4301 22.95 14.9101 22.88 14.4901 22.89C14.5701 23.13 14.4901 24 13.0901 27.58L12.7101 28.58C11.8701 30.76 11.2601 32.34 10.6501 32.45C10.6141 32.4598 10.5761 32.4598 10.5401 32.45C10.4821 32.4451 10.426 32.4273 10.3758 32.3978C10.3256 32.3684 10.2826 32.3282 10.25 32.28C9.96004 31.82 10.1501 30.53 10.8401 28.34C11.3934 26.4479 12.2623 24.6628 13.41 23.06C13.2343 23.1269 13.0538 23.1803 12.8701 23.22C12.5701 23.22 12.4501 23.22 12.3901 23.14C12.3367 23.0712 12.2976 22.9924 12.2753 22.9082C12.253 22.824 12.2478 22.7362 12.2601 22.65C12.2902 22.4802 12.3591 22.3197 12.4614 22.181C12.5638 22.0422 12.6968 21.9289 12.85 21.85C13.3454 21.5435 13.8956 21.3363 14.47 21.24C14.9759 21.1268 15.5002 21.1236 16.0074 21.2306C16.5146 21.3375 16.993 21.5522 17.41 21.86C17.8338 22.2071 18.1318 22.6838 18.2583 23.2168C18.3848 23.7497 18.3327 24.3095 18.1101 24.81C17.7469 25.4766 17.2366 26.0518 16.6181 26.4918C15.9995 26.9319 15.2889 27.2254 14.5401 27.35L14.4901 27.33ZM23.9301 26.95C24.8506 26.8672 25.7779 26.9008 26.69 27.05C27.2477 27.1482 27.8151 27.1784 28.38 27.14C28.8518 27.0985 29.3159 26.9943 29.7601 26.83C29.8207 26.8045 29.8847 26.7876 29.9501 26.78C30.0085 26.7667 30.0697 26.7733 30.124 26.7986C30.1784 26.824 30.2227 26.8667 30.25 26.92C30.37 27.16 30.1001 27.36 29.9601 27.47C29.318 27.8924 28.5771 28.1406 27.8101 28.19C27.4272 28.2157 27.043 28.2157 26.66 28.19C25.6794 28.1479 24.697 28.1747 23.72 28.27C23.0057 28.3476 22.2997 28.4881 21.6101 28.69C21.4406 28.7476 21.2667 28.7911 21.0901 28.82C21.0078 28.833 20.9236 28.8272 20.8439 28.8029C20.7643 28.7787 20.6911 28.7366 20.63 28.68C20.4 28.48 20.3801 28.13 20.5801 27.68C20.8798 27.1766 21.2656 26.7298 21.72 26.36L21.8901 26.19L24.44 23.77C24.1118 23.8555 23.7775 23.9157 23.44 23.95H22.88C22.5029 23.9891 22.1222 23.9234 21.78 23.76C21.6769 23.6988 21.5949 23.6077 21.5449 23.4987C21.4949 23.3897 21.4792 23.2681 21.5 23.15C21.56 22.91 21.8001 22.77 22.1501 22.79C22.2533 22.7953 22.3568 22.7953 22.4601 22.79L25.75 22.45C25.8563 22.4248 25.9671 22.4272 26.0722 22.457C26.1772 22.4867 26.2728 22.5428 26.35 22.62C26.4089 22.7362 26.4396 22.8647 26.4396 22.995C26.4396 23.1253 26.4089 23.2538 26.35 23.37C26.035 23.9651 25.6303 24.5081 25.1501 24.98L23.3201 26.88L23.9001 26.8L23.9301 26.95ZM22.9001 19.49C22.8532 19.6016 22.7963 19.7087 22.7301 19.81C22.5101 20.16 22.05 20.81 21.66 21.39C21.47 21.65 21.11 22.14 20.66 22.21C20.5844 22.2258 20.5063 22.2261 20.4305 22.2108C20.3547 22.1955 20.2828 22.165 20.2192 22.121C20.1555 22.077 20.1015 22.0206 20.0604 21.9551C20.0193 21.8896 19.992 21.8164 19.9801 21.74C19.9571 21.3272 20.0891 20.9207 20.35 20.6C20.8863 19.8943 21.6374 19.3819 22.4901 19.14C22.7001 19.09 22.8201 19.14 22.8901 19.14C22.9189 19.1829 22.9342 19.2333 22.9342 19.285C22.9342 19.3366 22.9189 19.3871 22.8901 19.43L22.9001 19.49ZM19.97 23.17C19.9889 23.0788 20.0311 22.994 20.0925 22.9239C20.1538 22.8539 20.2322 22.8008 20.3201 22.77V22.77C20.4009 22.741 20.4892 22.741 20.5701 22.77C20.7101 22.86 20.7901 23.08 20.8201 23.53C20.7367 24.631 20.394 25.6967 19.8201 26.64C19.558 27.0907 19.35 27.5707 19.2001 28.07C19.2246 28.118 19.2374 28.1711 19.2374 28.225C19.2374 28.2789 19.2246 28.332 19.2001 28.38C19.1656 28.4386 19.1177 28.4882 19.0603 28.5247C19.003 28.5612 18.9378 28.5836 18.8701 28.59C18.7769 28.6088 18.6806 28.604 18.5897 28.576C18.4989 28.5481 18.4165 28.4979 18.35 28.43C18.1749 28.2333 18.0448 28.0008 17.9688 27.7486C17.8928 27.4964 17.8728 27.2307 17.91 26.97C18 26.28 18.2101 25.54 19.8301 23.35C19.8876 23.2821 19.9378 23.2083 19.9801 23.13L19.97 23.17ZM22.85 33.05C22.77 33.48 22.6901 33.95 22.6101 34.44C22.5501 35.0483 22.3914 35.6428 22.1401 36.2C22.0736 36.3521 21.9733 36.487 21.8468 36.5945C21.7203 36.7019 21.5709 36.7791 21.41 36.82C21.2824 36.8549 21.1477 36.8549 21.0201 36.82C20.3201 36.67 20.5601 35.1 20.7901 34.1C20.0159 34.4459 19.2171 34.7333 18.4001 34.96C18.2001 35.68 18.0101 36.38 17.8601 37.06C17.7101 37.74 17.36 38.86 16.63 38.99C16.5243 39.01 16.4158 39.01 16.3101 38.99C16.2255 38.9759 16.145 38.9436 16.0742 38.8952C16.0034 38.8469 15.944 38.7837 15.9001 38.71C15.4901 38.03 15.9001 36.31 16.2701 35.29C15.9266 35.2925 15.5862 35.2244 15.2701 35.09C14.9401 34.94 14.77 34.72 14.78 34.5C14.79 34.28 15.0301 34.03 15.4501 33.86C15.8336 33.7442 16.2245 33.654 16.6201 33.59H16.8401H16.94C17.79 31.49 19.0501 29.21 19.7101 29.09C19.8101 29.09 19.9801 29.09 20.0201 29.46C19.9587 30.1895 19.7832 30.9049 19.5 31.58V31.58C19.3 32.16 19.1201 32.68 18.9501 33.2C19.7101 33.05 20.4201 32.89 21.0601 32.73H21.2001C21.8001 30.89 22.7101 28.99 23.3001 28.88H23.38C23.4266 28.88 23.4726 28.8908 23.5142 28.9117C23.5559 28.9325 23.5921 28.9627 23.6201 29C23.7701 29.2 23.6201 29.65 23.4301 30.56C23.3201 30.99 23.1901 31.56 23.0501 32.19L23.53 32.02L23.69 31.96C23.85 31.9 23.9201 31.89 23.9801 31.96C24.0125 31.9592 24.0443 31.9698 24.0698 31.9899C24.0953 32.0099 24.1131 32.0383 24.1201 32.07C24.1284 32.1349 24.1188 32.2009 24.0923 32.2608C24.0659 32.3208 24.0236 32.3723 23.97 32.41C23.6258 32.7094 23.2503 32.9709 22.85 33.19V33.05ZM29.53 30.72C29.53 30.88 29.4701 31.17 29.4201 31.5C29.2417 32.3443 29.1878 33.2101 29.2601 34.07C29.2934 34.135 29.3108 34.207 29.3108 34.28C29.3108 34.353 29.2934 34.425 29.2601 34.49C29.2396 34.53 29.2099 34.5645 29.1734 34.5906C29.1368 34.6167 29.0945 34.6337 29.0501 34.64C28.8597 34.6512 28.6727 34.5865 28.53 34.46C28.2917 34.2939 28.0953 34.0746 27.9564 33.8195C27.8176 33.5643 27.7401 33.2803 27.7301 32.99C27.2192 33.7718 26.503 34.398 25.66 34.8L25.3201 34.89C25.0889 34.9536 24.8426 34.932 24.626 34.8293C24.4094 34.7265 24.237 34.5493 24.1401 34.33C24.0103 33.7039 24.0948 33.0523 24.38 32.48C24.44 32.31 24.5001 32.14 24.5401 31.98V31.88C24.6001 31.7 24.6401 31.58 24.3901 31.47C24.1401 31.36 24.17 31.34 24.16 31.26C24.1556 31.2265 24.1596 31.1925 24.1719 31.161C24.1841 31.1295 24.2041 31.1016 24.2301 31.08C24.3998 30.934 24.6082 30.8402 24.8301 30.81C25.0855 30.7584 25.3511 30.8087 25.5701 30.95C25.6829 31.044 25.7737 31.1618 25.836 31.2948C25.8982 31.4279 25.9303 31.5731 25.9301 31.72C25.9603 32.2505 25.896 32.7821 25.7401 33.29C26.2863 32.9711 26.7903 32.5847 27.2401 32.14C27.6621 31.7233 28.0315 31.2565 28.3401 30.75C28.5801 30.37 28.7501 30.09 29.0101 30.04H29.1101C29.1518 30.0399 29.193 30.0487 29.231 30.066C29.2689 30.0832 29.3027 30.1085 29.3301 30.14C29.3906 30.2224 29.4335 30.3165 29.4559 30.4164C29.4782 30.5162 29.4797 30.6196 29.4601 30.72H29.53ZM36.8701 28.72C36.6914 28.8402 36.5003 28.9407 36.3001 29.02V29.02C35.4001 29.43 34.3001 29.87 32.8701 30.36C32.1801 32.09 31.23 34.89 31.16 35.12C31.09 35.35 30.9301 35.59 30.7901 35.62C30.7667 35.6315 30.7411 35.6374 30.7151 35.6374C30.6891 35.6374 30.6634 35.6315 30.6401 35.62C30.5782 35.5565 30.5296 35.4814 30.497 35.399C30.4643 35.3166 30.4484 35.2286 30.4501 35.14C30.3011 33.6408 30.5423 32.1285 31.1501 30.75C30.7928 30.7683 30.4356 30.7139 30.1 30.59C29.9374 30.522 29.808 30.3927 29.7401 30.23C29.7153 30.1732 29.7025 30.1119 29.7025 30.05C29.7025 29.988 29.7153 29.9268 29.7401 29.87C29.774 29.7814 29.8307 29.7034 29.9045 29.6437C29.9782 29.584 30.0663 29.5448 30.16 29.53V29.53C30.2729 29.5149 30.3872 29.5149 30.5 29.53C30.915 29.5453 31.3305 29.5185 31.7401 29.45C32.1063 28.742 32.5417 28.0721 33.0401 27.45C33.1369 27.3323 33.2709 27.2512 33.4201 27.22C33.4884 27.2087 33.5584 27.2137 33.6244 27.2345C33.6905 27.2554 33.7506 27.2915 33.8001 27.34C33.8662 27.4312 33.9089 27.5372 33.9246 27.6488C33.9403 27.7604 33.9284 27.8741 33.8901 27.98C33.7803 28.3252 33.6397 28.6599 33.47 28.98L33.4201 29.08L33.8901 28.97L34.4601 28.83L35.4601 28.61C36.4601 28.39 36.7501 28.33 36.8901 28.46C36.904 28.4953 36.904 28.5346 36.8901 28.57C36.8906 28.6001 36.8846 28.63 36.8725 28.6576C36.8604 28.6852 36.8425 28.7099 36.82 28.73L36.8701 28.72ZM38.0901 24.24C37.725 24.5234 37.2816 24.6875 36.82 24.71V24.71C36.6188 24.7461 36.4121 24.7389 36.2138 24.6889C36.0155 24.6389 35.8302 24.5472 35.6701 24.42L35.41 24.6C34.7671 25.1229 33.9982 25.4678 33.1801 25.6C32.9812 25.6302 32.7789 25.6302 32.5801 25.6C32.4928 25.5822 32.4086 25.5519 32.3301 25.51C32.2601 25.75 31.9601 26 31.4801 26.2C31.0525 26.3716 30.6 26.4729 30.1401 26.5C29.7201 26.5 29.2801 26.5 28.8601 26.5C28.4401 26.5 28.0001 26.5 27.5701 26.5C27.2799 26.5223 26.9923 26.5691 26.7101 26.64C26.6292 26.6697 26.5406 26.6711 26.4588 26.6438C26.377 26.6166 26.3069 26.5623 26.2601 26.49C26.1001 26.2 26.35 25.63 26.88 25.06C27.4458 24.5243 28.0436 24.0233 28.6701 23.56C29.0601 23.25 29.4401 22.95 29.7401 22.68C29.4401 22.73 28.8501 22.82 28.3301 22.86C28.1069 22.8734 27.8832 22.8734 27.66 22.86C27.4805 22.8643 27.303 22.8201 27.1464 22.7321C26.9898 22.6441 26.8598 22.5156 26.7701 22.36C26.7324 22.261 26.7173 22.1549 26.726 22.0493C26.7346 21.9438 26.7668 21.8415 26.8201 21.75C26.8607 21.6852 26.9166 21.6312 26.9828 21.5929C27.049 21.5545 27.1236 21.533 27.2001 21.53V21.53C27.263 21.5195 27.3272 21.5195 27.3901 21.53C27.4984 21.5567 27.6117 21.5567 27.72 21.53C28.06 21.53 28.88 21.36 30.1 21.16C30.2299 21.1515 30.3602 21.1515 30.4901 21.16C31.2601 21.09 31.58 21.3 31.72 21.48C31.8076 21.6203 31.8489 21.7846 31.8382 21.9497C31.8274 22.1147 31.7651 22.2722 31.66 22.4C31.4604 22.6582 31.2467 22.9052 31.0201 23.14C30.5401 23.65 29.3101 24.88 28.9201 25.24L29.6 25.32C30.0991 25.4001 30.605 25.4302 31.1101 25.41C31.3816 25.3938 31.647 25.3223 31.8901 25.2H31.94C31.9214 25.1677 31.9047 25.1343 31.8901 25.1C31.7947 24.837 31.7649 24.5548 31.8032 24.2778C31.8415 24.0007 31.9469 23.7372 32.1101 23.51C32.5349 22.8764 33.0901 22.3408 33.7385 21.939C34.3869 21.5372 35.1136 21.2784 35.8701 21.18C36.1355 21.1443 36.4046 21.1443 36.6701 21.18C36.7852 21.1007 36.9204 21.0556 37.0601 21.05C37.1218 21.0548 37.1813 21.0747 37.2336 21.1078C37.2859 21.1409 37.3293 21.1863 37.3601 21.24C37.4092 21.3359 37.4348 21.4422 37.4348 21.55C37.4348 21.6578 37.4092 21.764 37.3601 21.86C37.2984 22.0936 37.225 22.3239 37.1401 22.55C36.9701 23.05 36.89 23.3 37.07 23.55C37.1129 23.6017 37.1663 23.6436 37.2266 23.6729C37.287 23.7022 37.353 23.7183 37.4201 23.72C38.1201 23.78 38.2801 23.99 38.2901 24.15C38.2926 24.1887 38.2867 24.2275 38.2729 24.2637C38.2591 24.2999 38.2377 24.3328 38.2101 24.36L38.0901 24.24ZM30.0801 9.49999C30.4601 9.49999 30.6001 9.69999 30.7101 10.1C30.7101 10.21 30.8 10.46 30.88 10.79C31.0161 11.5101 31.2066 12.2188 31.4501 12.91C31.5801 12.97 32.2801 13.2 32.9601 13.41C34.1801 13.79 35.7 14.27 36.32 14.56L36.9301 14.83C38.9801 15.73 39.9301 16.24 39.9301 16.7C39.9355 16.812 39.9178 16.9239 39.8783 17.0288C39.8387 17.1337 39.7781 17.2294 39.7001 17.31C39.6077 17.411 39.4918 17.4876 39.3627 17.5329C39.2336 17.5783 39.0953 17.591 38.9601 17.57C38.6901 17.57 34.0101 17.57 29.3701 17.79C27.4801 17.89 25.8801 18.02 24.6101 18.16C19.6701 18.72 10.8501 20.02 10.5701 20.08H10.4001C10.2901 20.1005 10.1765 20.0898 10.0722 20.0492C9.96799 20.0085 9.87718 19.9395 9.81007 19.85C9.77113 19.7869 9.7505 19.7142 9.7505 19.64C9.7505 19.5658 9.77113 19.4931 9.81007 19.43C11.2054 18.3842 12.6991 17.4766 14.2701 16.72C15.5801 16.04 17.12 15.4 17.94 15.06L18.5501 14.81C18.6301 14.73 19.11 13.99 19.5 13.41C20.8 11.41 20.9001 11.36 21.0601 11.34C21.2201 11.32 23.25 10.91 25.25 10.51C28.25 9.90999 30.03 9.50999 30.16 9.50999" fill="#C8102E"/>
<path d="M33.6702 23.96C33.6702 23.96 33.6702 24.01 33.6702 24.02C33.6702 24.03 33.6702 24.02 33.8002 24.02C34.3779 23.8718 34.9282 23.6321 35.4302 23.31C35.5005 22.9594 35.6253 22.6219 35.8002 22.31C35.3411 22.3999 34.9094 22.5959 34.5395 22.8824C34.1697 23.1689 33.872 23.5379 33.6702 23.96" fill="#C8102E"/>
</g>
<defs>
<clipPath id="clip0_2249_40806">
<rect width="50.56" height="47.59" fill="white"/>
</clipPath>
</defs>
</svg>
